<svg xmlns="http://www.w3.org/2000/svg" viewBox="0 0 64 64" x="0px" y="0px"><path d="M59,55.02a8.993,8.993,0,0,0-3-6.7,8.671,8.671,0,0,0-.052-1.206c-.023-.219-.058-.548-.11-1.2a4.226,4.226,0,0,0-1.084-2.5,1.934,1.934,0,0,1-.593-1.417,1.823,1.823,0,0,1,.606-1.355,3.787,3.787,0,0,0,0-5.284,1.82,1.82,0,0,1,0-2.712,3.787,3.787,0,0,0,0-5.284,1.888,1.888,0,0,1-.609-1.436L54,24c0-.268-.011-.534-.02-.8,0-.068.02-.132.02-.2a4.939,4.939,0,0,0-.076-.754,21.995,21.995,0,0,0-43.857.092A4.981,4.981,0,0,0,10,23c0,.072.018.14.021.211-.007.236-.018.472-.018.709L9.84,26a1.827,1.827,0,0,1-.606,1.356,3.787,3.787,0,0,0,0,5.284,1.82,1.82,0,0,1,0,2.712,3.787,3.787,0,0,0,0,5.284,1.823,1.823,0,0,1,.606,1.355,1.934,1.934,0,0,1-.593,1.417,4.226,4.226,0,0,0-1.084,2.5c-.052.656-.087.985-.11,1.2A8.686,8.686,0,0,0,8,48.322a8.988,8.988,0,0,0-3,6.7V62H59ZM13.064,25.273a2.978,2.978,0,0,1-1.03-1.939c.011-.34.023-.68.051-1.016a3.01,3.01,0,0,1,1.251-1.812A18.98,18.98,0,0,0,13,24C13,24.43,13.036,24.85,13.064,25.273ZM17.927,14.5A16.525,16.525,0,0,0,22,15a14.844,14.844,0,0,0,10-3.574A14.844,14.844,0,0,0,42,15a16.525,16.525,0,0,0,4.073-.5A16.828,16.828,0,0,1,49,24a17,17,0,0,1-34,0A16.828,16.828,0,0,1,17.927,14.5Zm32.737,6.01a3,3,0,0,1,1.25,1.81c.03.338.039.68.052,1.022a2.98,2.98,0,0,1-1.03,1.935C50.964,24.85,51,24.43,51,24A18.98,18.98,0,0,0,50.664,20.506ZM27.825,42.523a18.51,18.51,0,0,0,8.35,0,6.994,6.994,0,0,0,6.818,5.426L48,47.986v7.677L21.659,47.916A6.993,6.993,0,0,0,27.825,42.523ZM49.987,46,43,45.949a5,5,0,0,1-4.9-3.972A19.053,19.053,0,0,0,50.632,27.7a4.97,4.97,0,0,0,1.608-.928,4.021,4.021,0,0,0,.994,1.866,1.82,1.82,0,0,1,0,2.712,3.788,3.788,0,0,0,0,5.285,1.818,1.818,0,0,1,0,2.71,3.765,3.765,0,0,0-1.074,2.642,3.845,3.845,0,0,0,1.032,2.667,2.252,2.252,0,0,1,.651,1.411c.03.374.054.64.074.847A8.928,8.928,0,0,0,49.987,46ZM32,4A20.015,20.015,0,0,1,51.214,18.54a4.912,4.912,0,0,0-1.15-.42,19.046,19.046,0,0,0-2.775-5.369,1,1,0,0,0-1.095-.364A14.462,14.462,0,0,1,42,13a12.4,12.4,0,0,1-9.251-3.663,1.033,1.033,0,0,0-1.5,0A12.4,12.4,0,0,1,22,13a14.462,14.462,0,0,1-4.194-.613,1,1,0,0,0-1.1.364,19.046,19.046,0,0,0-2.775,5.369,4.905,4.905,0,0,0-1.161.426A20.022,20.022,0,0,1,32,4ZM10.157,46.069a2.252,2.252,0,0,1,.651-1.411,3.845,3.845,0,0,0,1.032-2.667,3.765,3.765,0,0,0-1.074-2.642,1.818,1.818,0,0,1,0-2.71,3.788,3.788,0,0,0,0-5.285,1.82,1.82,0,0,1,0-2.712,4.023,4.023,0,0,0,1-1.862,4.983,4.983,0,0,0,1.6.924A19.053,19.053,0,0,0,25.9,41.977a5,5,0,0,1-4.907,3.972L14.02,46a8.956,8.956,0,0,0-3.937.917C10.1,46.71,10.127,46.444,10.157,46.069ZM7,55.02A7.029,7.029,0,0,1,14.027,48l.809-.006L48,57.748V60H7ZM57,60H50V48a7.028,7.028,0,0,1,7,7.019Z"></path><circle cx="23" cy="22" r="2"></circle><path d="M23,19a1,1,0,0,0,0-2,5.006,5.006,0,0,0-5,5,1,1,0,0,0,2,0A3,3,0,0,1,23,19Z"></path><circle cx="41" cy="22" r="2"></circle><path d="M41,19a3,3,0,0,1,3,3,1,1,0,0,0,2,0,5.006,5.006,0,0,0-5-5,1,1,0,0,0,0,2Z"></path><path d="M32,32a5.006,5.006,0,0,0,5-5,1,1,0,0,0-1-1H28a1,1,0,0,0-1,1A5.006,5.006,0,0,0,32,32Zm2.829-4a3,3,0,0,1-5.658,0Z"></path><path d="M31,24h2a1,1,0,0,0,0-2h-.382l.277-.553a1,1,0,0,0-1.79-.894l-1,2A1,1,0,0,0,31,24Z"></path></svg>