<svg xmlns="http://www.w3.org/2000/svg" xmlns:xlink="http://www.w3.org/1999/xlink" version="1.1" x="0px" y="0px" viewBox="0 0 100 100" style="enable-background:new 0 0 100 100;" xml:space="preserve"><path d="M69.1953125,51.2192993v-1.1702881c2.6096191-0.4733276,4.5961914-2.7575073,4.5961914-5.5016479  c0-2.7319336-3.9941406-8.2226562-4.7949219-9.2958984c-0.3769531-0.5058594-1.2255859-0.5058594-1.6025391,0  c-0.8007812,1.0732422-4.7949219,6.5639648-4.7949219,9.2958984c0,2.7441406,1.9865723,5.0283203,4.5961914,5.5016479v1.1702881  c-4.3816528,0.0749512-10.3278198,0.6505127-13.3867188,2.2651978V35.8027344  c0-4.1084595-11.3743896-5.3381958-18.1953125-5.4470215v-1.7212524c3.0739136-0.4828491,5.4350586-3.1419067,5.4350586-6.3493042  c0-3.2402344-5.0571289-10.1103516-5.6337891-10.8833008c-0.3769531-0.5058594-1.2255859-0.5058594-1.6025391,0  c-0.5766602,0.7729492-5.6337891,7.6430664-5.6337891,10.8833008c0,3.2073975,2.361145,5.8664551,5.4350586,6.3493042v1.7212524  c-6.8209229,0.1088257-18.1953125,1.338562-18.1953125,5.4470215v47.7412109C15.4179688,87.8598633,27.9741211,89,34.6132812,89  c5.3223267,0,14.4412842-0.7345581,17.8516846-3.2486572C54.8226929,88.2746582,63.0266724,89,68.1953125,89  c6.0864258,0,16.3867188-1.0043945,16.3867188-4.7680664v-28.253418  C84.5820312,52.413208,75.3435669,51.3244629,69.1953125,51.2192993z M30.1782227,22.2851562  c0-1.7016602,2.4628906-5.7705078,4.4350586-8.578125c1.972168,2.8076172,4.4350586,6.8764648,4.4350586,8.578125  c0,2.1002197-1.4714966,3.8552856-3.4350586,4.3114014v-3.0281982c0-0.5522461-0.4477539-1-1-1s-1,0.4477539-1,1v3.0281982  C31.6497192,26.1404419,30.1782227,24.385376,30.1782227,22.2851562z M51.8085938,83.5439453  C51.8085938,84.5776367,45.9584961,87,34.6132812,87s-17.1953125-2.4223633-17.1953125-3.4560547V57.276001  c1.8259888,1.0414429,4.6350098,1.6973267,7.28125,2.107605c0.1358032,1.2120361,0.6427612,2.3897705,1.5703125,3.3170776  l7.6235352,7.6235352c0.1489258,0.1489258,0.3354492,0.2392578,0.5302734,0.2724609  c0.0668945,0.0136719,0.1352539,0.0205078,0.203125,0.0205078c0.2558594,0,0.5117188-0.0976562,0.7070312-0.2929688  l7.6235352-7.6235352c0.9275513-0.9273071,1.4345093-2.1050415,1.5703125-3.3170776  c2.6462402-0.4102783,5.4552612-1.0661621,7.28125-2.107605V83.5439453z M27.6835938,56.2319336  c0.6967773-0.6967773,1.6118164-1.0449219,2.5268555-1.0449219c0.9155273,0,1.8305664,0.3481445,2.5273438,1.0449219  l1.168457,1.168457c0.390625,0.390625,1.0234375,0.390625,1.4140625,0l1.168457-1.168457  c1.3930664-1.3935547,3.6601562-1.3945312,5.0541992,0c1.3930664,1.3935547,1.3930664,3.6611328,0,5.0546875l-6.9296875,6.9296875  l-6.9296875-6.9296875C26.2905273,59.8930664,26.2905273,57.6254883,27.6835938,56.2319336z M51.8085938,54.6342773  c0,0.3257446-1.3591309,1.7797852-7.4168701,2.7441406c-0.2389526-0.9370117-0.7027588-1.8284302-1.4346924-2.5605469  c-2.1733398-2.1743164-5.7099609-2.1733398-7.8823242,0l-0.4614258,0.4614258l-0.4614258-0.4614258  c-2.1733398-2.1743164-5.7099609-2.1723633-7.8823242,0c-0.7319336,0.7321167-1.1957397,1.6235352-1.4346924,2.5605469  c-6.0578003-0.9643555-7.4168701-2.418396-7.4168701-2.7441406V38.4360962  c3.8115845,2.1721802,12.1860962,2.8222046,17.1953125,2.8222046s13.383728-0.6500244,17.1953125-2.8222046V54.6342773z   M34.6132812,39.2583008c-11.3452148,0-17.1953125-2.4223633-17.1953125-3.4555664  c0-1.0023804,5.5170898-3.3037109,16.1953125-3.442749v3.442749c0,0.5522461,0.4477539,1,1,1s1-0.4477539,1-1v-3.442749  c10.6782227,0.1390381,16.1953125,2.4403687,16.1953125,3.442749  C51.8085938,36.8359375,45.9584961,39.2583008,34.6132812,39.2583008z M64.5991211,44.5473633  c0-1.3701172,1.9638672-4.6391602,3.5961914-6.9853516c1.6328125,2.3452148,3.5961914,5.6137695,3.5961914,6.9853516  c0,1.6335449-1.1017456,3.0005493-2.5961914,3.4370728v-2.3521118c0-0.5522461-0.4477539-1-1-1s-1,0.4477539-1,1v2.3521118  C65.7008667,47.5479126,64.5991211,46.1809082,64.5991211,44.5473633z M53.8085938,55.9854736  c0.210083-0.9066162,5.0999146-2.6309814,13.3867188-2.7626953v2.7557373c0,0.5522461,0.4477539,1,1,1s1-0.4477539,1-1v-2.7557983  c8.2647705,0.1312866,13.1514893,1.8469238,13.3852539,2.7557983c-0.2431641,0.9453125-5.5087891,2.7680664-14.3852539,2.7680664  c-8.8988037,0-14.1682129-1.8319702-14.3867188-2.7574463V55.9854736z M53.8085938,58.47229  c3.2982788,1.7408447,9.9567261,2.274292,14.3867188,2.274292c4.4300537,0,11.088562-0.5334473,14.3867798-2.274353  l0.0003662,10.1920776c-0.0940552,0.4037476-1.7467651,1.4568481-6.0092773,2.1549072  c-0.2195435-0.7681885-0.6091309-1.4976196-1.2128296-2.1014404c-1.8984375-1.8974609-4.9863281-1.8974609-6.8847656,0  l-0.2802734,0.2807617l-0.28125-0.2807617c-1.8974609-1.8984375-4.9863281-1.8984375-6.8837891,0  c-0.6038208,0.6038208-0.9934692,1.333313-1.2130737,2.1014404c-4.255249-0.6970825-5.9100342-1.7480469-6.008606-2.1531982  V58.47229z M73.9462891,74.1879883l-5.7509766,5.7504883l-5.7509766-5.7504883  c-1.1181641-1.1181641-1.1181641-2.9379883,0-4.0561523c0.559082-0.559082,1.293457-0.8383789,2.027832-0.8383789  s1.46875,0.2792969,2.027832,0.8383789l0.9882812,0.9882812c0.375,0.375,1.0385742,0.375,1.4145508,0l0.9873047-0.9882812  c1.1176758-1.1171875,2.9375-1.1171875,4.0561523,0C75.0639648,71.25,75.0639648,73.0698242,73.9462891,74.1879883z M68.1953125,87  c-8.9042969,0-14.175293-1.8344727-14.3867188-2.7680664v-0.6879883v-12.392395  c1.5400391,0.8118286,3.7508545,1.3363037,5.8615723,1.6704712c0.1387939,1.0170288,0.5799561,1.9998779,1.3601074,2.7800293  l6.4467773,6.4467773c0.1489258,0.1489258,0.3344727,0.2392578,0.5292969,0.2729492  c0.0654297,0.0131836,0.1264648,0.0146484,0.199707,0.0200195c0.2651367,0,0.5195312-0.1054688,0.7070312-0.2929688  l6.4472656-6.4467773c0.7799683-0.7801514,1.2210693-1.7630615,1.3598022-2.7801514  c2.1110229-0.3344116,4.3222656-0.8589478,5.8624268-1.6708984l0.0004272,13.0721436  C82.3706055,85.1655273,77.0996094,87,68.1953125,87z"></path></svg>