<svg viewBox="0 0 144 162" fill="none" xmlns="http://www.w3.org/2000/svg" id="B1a50UYx7"><style>@-webkit-keyframes BkGT5ALtg7_SJceeDYgm_Animation{0%{-webkit-transform:  translate(0px, 0px);transform:  translate(0px, 0px);}41.11%{-webkit-transform:  translate(0px, -5px);transform:  translate(0px, -5px);}100%{-webkit-transform:  translate(0px, 0px);transform:  translate(0px, 0px);}}@keyframes BkGT5ALtg7_SJceeDYgm_Animation{0%{-webkit-transform:  translate(0px, 0px);transform:  translate(0px, 0px);}41.11%{-webkit-transform:  translate(0px, -5px);transform:  translate(0px, -5px);}100%{-webkit-transform:  translate(0px, 0px);transform:  translate(0px, 0px);}}@-webkit-keyframes BkGT5ALtg7_Animation{0%{opacity:  1;}23.33%{opacity:  0.25;}100%{opacity:  1;}}@keyframes BkGT5ALtg7_Animation{0%{opacity:  1;}23.33%{opacity:  0.25;}100%{opacity:  1;}}@-webkit-keyframes Sy-aq0IKx7_rJd2JPtxm_Animation{0%{-webkit-transform:  translate(0px, 0px);transform:  translate(0px, 0px);}41.11%{-webkit-transform:  translate(0px, -5px);transform:  translate(0px, -5px);}100%{-webkit-transform:  translate(0px, 0px);transform:  translate(0px, 0px);}}@keyframes Sy-aq0IKx7_rJd2JPtxm_Animation{0%{-webkit-transform:  translate(0px, 0px);transform:  translate(0px, 0px);}41.11%{-webkit-transform:  translate(0px, -5px);transform:  translate(0px, -5px);}100%{-webkit-transform:  translate(0px, 0px);transform:  translate(0px, 0px);}}@-webkit-keyframes Sy-aq0IKx7_Animation{0%{opacity:  1;}50%{opacity:  0.3;}100%{opacity:  1;}}@keyframes Sy-aq0IKx7_Animation{0%{opacity:  1;}50%{opacity:  0.3;}100%{opacity:  1;}}#B1a50UYx7 *{-webkit-animation-duration:  3s;animation-duration:  3s;-webkit-animation-iteration-count:  infinite;animation-iteration-count:  infinite;-webkit-animation-timing-function:  cubic-bezier(0, 0, 1, 1);animation-timing-function:  cubic-bezier(0, 0, 1, 1);}#ryeT5RUtl7{-webkit-transform:  translate(21.5px, 90.575px);transform:  translate(21.5px, 90.575px);fill: #DE5050;}#Sy-aq0IKx7{-webkit-transform:  translate(30px, 5px);transform:  translate(30px, 5px);fill: url(#paint0_linear);-webkit-animation-name:  Sy-aq0IKx7_Animation;animation-name:  Sy-aq0IKx7_Animation;-webkit-transform-origin:  50% 50%;transform-origin:  50% 50%;transform-box:  fill-box;opacity:  1;}#BkGT5ALtg7{-webkit-transform:  translate(102px, 53px);transform:  translate(102px, 53px);fill: url(#paint1_linear);-webkit-animation-name:  BkGT5ALtg7_Animation;animation-name:  BkGT5ALtg7_Animation;-webkit-transform-origin:  50% 50%;transform-origin:  50% 50%;transform-box:  fill-box;opacity:  1;}#S1XTq08YeX{fill: #666666;}#Sy-aq0IKx7_rJd2JPtxm{-webkit-animation-name:  Sy-aq0IKx7_rJd2JPtxm_Animation;animation-name:  Sy-aq0IKx7_rJd2JPtxm_Animation;-webkit-transform-origin:  50% 50%;transform-origin:  50% 50%;transform-box:  fill-box;-webkit-transform:  translate(0px, 0px);transform:  translate(0px, 0px);}#BkGT5ALtg7_SJceeDYgm{-webkit-animation-name:  BkGT5ALtg7_SJceeDYgm_Animation;animation-name:  BkGT5ALtg7_SJceeDYgm_Animation;-webkit-transform-origin:  50% 50%;transform-origin:  50% 50%;transform-box:  fill-box;-webkit-transform:  translate(0px, 0px);transform:  translate(0px, 0px);}</style>
<path fill-rule="evenodd" clip-rule="evenodd" d="M23.7255 25.7023C31.4376 23.2387 35.5 15.0401 35.5 9.92502C35.5 3.84989 29 -3.57498 19 1.92502C7.5 -1.57498 0 -0.150111 0 5.92502C0 10.109 3.90393 18.2536 9.85254 22.9187C10.419 26.0369 13.6095 28.425 17.4605 28.425C20.0435 28.425 22.3293 27.3507 23.7255 25.7023ZM103 37.425C103 44.0524 96.3365 52.425 87.5 52.425C78.6635 52.425 73.5 44.0524 73.5 37.425C73.5 30.7976 78.6635 28.425 87.5 28.425C96.3365 28.425 103 30.7976 103 37.425Z" id="ryeT5RUtl7"/>
<g id="Sy-aq0IKx7_rJd2JPtxm" data-animator-group="true" data-animator-type="0"><ellipse cx="10" cy="14.5" rx="10" ry="14.5" id="Sy-aq0IKx7"/></g>
<g id="BkGT5ALtg7_SJceeDYgm" data-animator-group="true" data-animator-type="0"><ellipse cx="8.5" cy="14" rx="8.5" ry="14" id="BkGT5ALtg7"/></g>
<path d="M111.965 83.5098V81.0785C117.398 80.0951 121.534 75.3497 121.534 69.6487C121.534 63.973 113.218 52.566 111.551 50.3363C110.766 49.2853 108.999 49.2853 108.215 50.3363C106.547 52.566 98.2314 63.973 98.2314 69.6487C98.2314 75.3497 102.368 80.0951 107.801 81.0785V83.5098C98.6781 83.6655 86.2982 84.8612 79.9295 88.2158V51.4815C79.9295 42.9461 56.248 40.3913 42.0468 40.1652V36.5893C48.4467 35.5862 53.3626 30.0619 53.3626 23.3985C53.3626 16.6668 42.8336 2.39402 41.633 0.7882C40.8482 -0.262733 39.0813 -0.262733 38.2965 0.7882C37.0959 2.39402 26.5669 16.6668 26.5669 23.3985C26.5669 30.0619 31.4828 35.5862 37.8828 36.5893V40.1652C23.6815 40.3913 5.20502e-07 42.9461 5.20502e-07 51.4815V150.665C1.1451e-06 159.631 26.142 162 39.9648 162C51.0459 162 70.0316 160.474 77.1321 155.251C82.0409 160.493 99.1216 162 109.883 162C122.555 162 144 159.913 144 152.094V93.3972C144 85.9902 124.765 83.7283 111.965 83.5098ZM30.7309 23.3985C30.7309 19.8633 35.8587 11.4101 39.9648 5.57725C44.0708 11.4101 49.1986 19.8633 49.1986 23.3985C49.1986 27.7617 46.1349 31.4079 42.0468 32.3555V26.0644C42.0468 24.9171 41.1145 23.9869 39.9648 23.9869C38.815 23.9869 37.8828 24.9171 37.8828 26.0644V32.3555C33.7946 31.4079 30.7309 27.7617 30.7309 23.3985ZM75.7655 150.665C75.7655 152.812 63.5856 157.845 39.9648 157.845C16.344 157.845 4.16401 152.812 4.16401 150.665V96.0927C7.96573 98.2563 13.8141 99.6189 19.3236 100.471C19.6064 102.989 20.6619 105.436 22.593 107.363L38.4653 123.201C38.7753 123.51 39.1637 123.698 39.5693 123.767C39.7086 123.795 39.8509 123.809 39.9922 123.809C40.5249 123.809 41.0576 123.606 41.4642 123.201L57.3365 107.363C59.2677 105.436 60.3232 102.989 60.6059 100.471C66.1154 99.6189 71.9638 98.2563 75.7655 96.0927V150.665V150.665ZM25.5371 93.9236C26.9878 92.4761 28.8929 91.7528 30.798 91.7528C32.7042 91.7528 34.6093 92.4761 36.06 93.9236L38.4927 96.3511C39.306 97.1627 40.6235 97.1627 41.4368 96.3511L43.8695 93.9236C46.7699 91.0285 51.49 91.0265 54.3924 93.9236C57.2928 96.8188 57.2928 101.53 54.3924 104.425L39.9648 118.821L25.5371 104.425C22.6367 101.53 22.6367 96.8188 25.5371 93.9236ZM75.7655 90.6045C75.7655 91.2812 72.9358 94.302 60.3235 96.3055C59.826 94.3588 58.8604 92.5069 57.3365 90.9859C52.8116 86.4687 45.4483 86.4707 40.9254 90.9859L39.9648 91.9445L39.0041 90.9859C34.4792 86.4687 27.1159 86.4728 22.593 90.9859C21.0691 92.5069 20.1035 94.3588 19.606 96.3055C6.9936 94.302 4.16401 91.2812 4.16401 90.6045V56.9524C12.0998 61.4652 29.5355 62.8156 39.9648 62.8156C50.394 62.8156 67.8298 61.4652 75.7655 56.9524V90.6045ZM39.9648 58.6606C16.344 58.6606 4.16401 53.628 4.16401 51.4815C4.16401 49.3991 15.6506 44.618 37.8828 44.3292V51.4815C37.8828 52.6288 38.815 53.5591 39.9648 53.5591C41.1145 53.5591 42.0468 52.6288 42.0468 51.4815V44.3292C64.2789 44.618 75.7655 49.3991 75.7655 51.4815C75.7655 53.628 63.5856 58.6606 39.9648 58.6606ZM102.395 69.6487C102.395 66.8023 106.484 60.0107 109.883 55.1365C113.282 60.0087 117.37 66.7992 117.37 69.6487C117.37 73.0424 115.076 75.8824 111.965 76.7893V71.9027C111.965 70.7554 111.033 69.8252 109.883 69.8252C108.733 69.8252 107.801 70.7554 107.801 71.9027V76.7893C104.689 75.8824 102.395 73.0424 102.395 69.6487ZM79.9295 93.4116C80.3669 91.5281 90.5476 87.9457 107.801 87.6721V93.3972C107.801 94.5445 108.733 95.4747 109.883 95.4747C111.033 95.4747 111.965 94.5445 111.965 93.3972V87.6719C129.172 87.9447 139.346 91.509 139.833 93.3972C139.327 95.3611 128.364 99.1479 109.883 99.1479C91.3554 99.1479 80.3844 95.3419 79.9295 93.4192V93.4116ZM79.9295 98.578C86.7966 102.195 100.659 103.303 109.883 103.303C119.106 103.303 132.969 102.195 139.836 98.5779L139.837 119.752C139.641 120.591 136.2 122.779 127.326 124.229C126.868 122.633 126.057 121.118 124.8 119.863C120.848 115.921 114.419 115.921 110.466 119.863L109.883 120.447L109.297 119.863C105.347 115.919 98.9156 115.919 94.9651 119.863C93.7079 121.118 92.8967 122.633 92.4395 124.229C83.58 122.781 80.1347 120.597 79.9295 119.756V98.578V98.578ZM121.856 131.228L109.883 143.174L97.9092 131.228C95.5812 128.905 95.5812 125.124 97.9092 122.801C99.0732 121.639 100.602 121.059 102.131 121.059C103.66 121.059 105.189 121.639 106.353 122.801L108.411 124.854C109.191 125.633 110.573 125.633 111.356 124.854L113.411 122.801C115.738 120.48 119.527 120.48 121.856 122.801C124.183 125.124 124.183 128.905 121.856 131.228ZM109.883 157.845C91.344 157.845 80.3697 154.034 79.9295 152.094V150.665V124.919C83.1359 126.606 87.7388 127.696 92.1333 128.39C92.4223 130.503 93.3408 132.545 94.9651 134.165L108.387 147.559C108.697 147.868 109.084 148.056 109.489 148.126C109.626 148.153 109.753 148.156 109.905 148.167C110.457 148.167 110.987 147.948 111.377 147.559L124.8 134.165C126.424 132.545 127.343 130.503 127.632 128.39C132.027 127.695 136.631 126.605 139.837 124.918L139.838 152.076C139.396 154.034 128.422 157.845 109.883 157.845Z" id="S1XTq08YeX"/>
<defs>
<linearGradient id="paint0_linear" x2="1" gradientUnits="userSpaceOnUse" gradientTransform="translate(20) scale(20 29) rotate(90)">
<stop offset="0.0552486" stop-color="#FF0303" stop-opacity="0.36"/>
<stop offset="0.154696" stop-color="#FFA928"/>
<stop offset="0.668508" stop-color="#FFEA7C"/>
<stop offset="0.961326" stop-color="#6174D2"/>
</linearGradient>
<linearGradient id="paint1_linear" x2="1" gradientUnits="userSpaceOnUse" gradientTransform="translate(17) scale(17 28) rotate(90)">
<stop offset="0.0552486" stop-color="#FF0303" stop-opacity="0.36"/>
<stop offset="0.154696" stop-color="#FFA928"/>
<stop offset="0.668508" stop-color="#FFEA7C"/>
<stop offset="0.961326" stop-color="#6174D2"/>
</linearGradient>
</defs>
<script>(function(){var a=document.querySelector('#B1a50UYx7'),b=a.querySelectorAll('style'),c=function(d){b.forEach(function(f){var g=f.textContent;g&amp;&amp;(f.textContent=g.replace(/transform-box:[^;\r\n]*/gi,'transform-box: '+d))})};c('initial'),window.requestAnimationFrame(function(){return c('fill-box')})})();</script></svg>