<svg xmlns="http://www.w3.org/2000/svg" viewBox="0 0 64 64" x="0px" y="0px"><title>candle-christmas-decoration-love</title><g><path d="M17,13a1,1,0,0,0,2,0,3,3,0,0,1,3-3,1,1,0,0,0,0-2,3,3,0,0,1-3-3,1,1,0,0,0-2,0,3,3,0,0,1-3,3,1,1,0,0,0,0,2A3,3,0,0,1,17,13Zm1-5a5.043,5.043,0,0,0,1,1,5.043,5.043,0,0,0-1,1,5.043,5.043,0,0,0-1-1A5.043,5.043,0,0,0,18,8Z"></path><path d="M49,22a3,3,0,0,1-3-3,1,1,0,0,0-2,0,3,3,0,0,1-3,3,1,1,0,0,0,0,2,3,3,0,0,1,3,3,1,1,0,0,0,2,0,3,3,0,0,1,3-3,1,1,0,0,0,0-2Zm-4,2a5.043,5.043,0,0,0-1-1,5.043,5.043,0,0,0,1-1,5.043,5.043,0,0,0,1,1A5.043,5.043,0,0,0,45,24Z"></path><path d="M39,28H33V23.887c3.141-.648,5.556-4.281,5.556-8.665C38.556,10.682,36,2,32,2s-6.556,8.682-6.556,13.222c0,4.384,2.415,8.017,5.556,8.665V28H25a1,1,0,0,0-1,1V54H20a1,1,0,0,0-1,1v6a1,1,0,0,0,1,1H44a1,1,0,0,0,1-1V55a1,1,0,0,0-1-1H40V29A1,1,0,0,0,39,28ZM27.444,15.222C27.444,10.893,29.932,4,32,4s4.556,6.893,4.556,11.222c0,3.164-1.549,5.9-3.556,6.6V20a1,1,0,0,0-2,0v1.822C28.993,21.122,27.444,18.386,27.444,15.222ZM38,30v8.594a4.4,4.4,0,0,0-.355-.4,4.81,4.81,0,0,0-5.645-.5,4.809,4.809,0,0,0-5.645.506A4.4,4.4,0,0,0,26,38.6V30ZM37,41.2a2.061,2.061,0,0,1-.7,1.526L32,46.647,27.7,42.73a2.008,2.008,0,0,1,0-3.052,2.744,2.744,0,0,1,3.623,0,1,1,0,0,0,1.348,0,2.744,2.744,0,0,1,3.623,0A2.061,2.061,0,0,1,37,41.2ZM26,43.813a4.4,4.4,0,0,0,.355.395l4.971,4.531a1,1,0,0,0,1.348,0l4.971-4.531A4.4,4.4,0,0,0,38,43.813V54H26ZM43,60H21V56H43Z"></path></g></svg>