<svg xmlns="http://www.w3.org/2000/svg" viewBox="0 0 64 64" x="0px" y="0px"><title>Card-celebration-invitation-invite-party-mail</title><g data-name="Layer 3"><path d="M60,22l-2-1.53V14a1,1,0,0,0-1-1H48.14L35,3.05a5,5,0,0,0-6,0L15.86,13H7a1,1,0,0,0-1,1v6.48L4,22a5,5,0,0,0-2,4V61a1,1,0,0,0,1,1H61a1,1,0,0,0,1-1V26A5,5,0,0,0,60,22Zm-1.21,1.59A3,3,0,0,1,60,26v3.52L58,31V23Zm-28.63-19a3,3,0,0,1,3.63,0l11,8.36H19.17ZM56,15V32.56L33.81,49.39a3,3,0,0,1-3.63,0L8,32.56V15ZM4,26a3,3,0,0,1,1.19-2.39L6,23v8L4,29.52ZM4,60V32L29,51a5,5,0,0,0,6,0L60,32V60Z"></path><path d="M24.09,36.41A1,1,0,0,0,25,37H39a1,1,0,0,0,.91-.59l4-9A1,1,0,0,0,42.84,26l-5.49.92-4.64-4.64a1,1,0,0,0-1.41,0l-4.64,4.64L21.16,26a1,1,0,0,0-1.08,1.39ZM26.84,29a1,1,0,0,0,.87-.28L32,24.41l4.29,4.29a1,1,0,0,0,.87.28l4.17-.69-3,6.71H25.65l-3-6.71Z"></path><path d="M39,39H25a1,1,0,0,0,0,2H39a1,1,0,0,0,0-2Z"></path><circle cx="32" cy="19" r="2"></circle><circle cx="18" cy="23" r="2"></circle><circle cx="46" cy="23" r="2"></circle><path d="M57,56H49a1,1,0,0,0,0,2h8a1,1,0,0,0,0-2Z"></path><path d="M57,52H52a1,1,0,0,0,0,2h5a1,1,0,0,0,0-2Z"></path></g></svg>