<svg xmlns:x="http://ns.adobe.com/Extensibility/1.0/" xmlns:i="http://ns.adobe.com/AdobeIllustrator/10.0/" xmlns:graph="http://ns.adobe.com/Graphs/1.0/" xmlns="http://www.w3.org/2000/svg" xmlns:xlink="http://www.w3.org/1999/xlink" version="1.1" x="0px" y="0px" viewBox="0 0 64 64" enable-background="new 0 0 64 64" xml:space="preserve"><metadata><sfw xmlns="http://ns.adobe.com/SaveForWeb/1.0/"><slices></slices><sliceSourceBounds y="-8161" x="-8165" width="16389" height="16385" bottomLeftOrigin="true"></sliceSourceBounds></sfw></metadata><g><g><path d="M56,13.5H8c-0.276,0-0.5,0.224-0.5,0.5v30c0,0.276,0.224,0.5,0.5,0.5h13.5V50c0,0.18,0.097,0.347,0.253,0.436    C21.83,50.479,21.915,50.5,22,50.5c0.089,0,0.178-0.023,0.257-0.071l9.881-5.929H56c0.276,0,0.5-0.224,0.5-0.5V14    C56.5,13.724,56.276,13.5,56,13.5z M55.5,43.5H32c-0.091,0-0.18,0.024-0.257,0.071L22.5,49.117V44c0-0.276-0.224-0.5-0.5-0.5H8.5    v-29h47V43.5z"></path><path d="M16,22.5h32c0.276,0,0.5-0.224,0.5-0.5s-0.224-0.5-0.5-0.5H16c-0.276,0-0.5,0.224-0.5,0.5S15.724,22.5,16,22.5z"></path><path d="M16,28.5h32c0.276,0,0.5-0.224,0.5-0.5s-0.224-0.5-0.5-0.5H16c-0.276,0-0.5,0.224-0.5,0.5S15.724,28.5,16,28.5z"></path><path d="M16,34.5h16c0.276,0,0.5-0.224,0.5-0.5s-0.224-0.5-0.5-0.5H16c-0.276,0-0.5,0.224-0.5,0.5S15.724,34.5,16,34.5z"></path></g></g></svg>