<svg xmlns="http://www.w3.org/2000/svg" xmlns:xlink="http://www.w3.org/1999/xlink" version="1.1" x="0px" y="0px" viewBox="0 0 100 100" style="enable-background:new 0 0 100 100;" xml:space="preserve"><path d="M78.1,17.4H21.9L3.3,36L50,82.6L96.7,36L78.1,17.4z M50.7,36.2h12.1L50.7,76.9V36.2z M49.3,76.9L37,36.2h12.3V76.9z   M64.3,36.2h9L52.5,75.7L64.3,36.2z M37.3,34.8l12.2-15.5l12.2,15.5H37.3z M35.5,36.2l11.6,38.1L26.7,36.2H35.5z M25.1,36.2l20,37.5  L16.4,36.2H25.1z M74.8,36.2h8.8L54.4,75.1L74.8,36.2z M65.4,34.8l12.4-15.7l15.7,15.7H65.4z M76.3,18.8l-12.6,16h-0.1l-12.6-16  H76.3z M48.1,18.8L36,34.2L23.8,18.8H48.1z M22.3,19l12.4,15.8H6.5L22.3,19z M5.5,36.2h9.1l29.8,39L5.5,36.2z M57.9,72.7l27.5-36.6  h9L57.9,72.7z"></path></svg>