<svg xmlns="http://www.w3.org/2000/svg" xmlns:xlink="http://www.w3.org/1999/xlink" version="1.1" x="0px" y="0px" viewBox="0 0 100 100" style="enable-background:new 0 0 100 100;" xml:space="preserve" id="ryH7uSKl7"><style>@-webkit-keyframes rydBm_BtxQ_ryZ76rtlX_Animation{0%{-webkit-transform: scale(1, 1);transform: scale(1, 1);}47.78%{-webkit-transform: scale(1.25, 1.25);transform: scale(1.25, 1.25);}100%{-webkit-transform: scale(1, 1);transform: scale(1, 1);}}@keyframes rydBm_BtxQ_ryZ76rtlX_Animation{0%{-webkit-transform: scale(1, 1);transform: scale(1, 1);}47.78%{-webkit-transform: scale(1.25, 1.25);transform: scale(1.25, 1.25);}100%{-webkit-transform: scale(1, 1);transform: scale(1, 1);}}@-webkit-keyframes B15r7dBYeX_HydC2SFx7_Animation{0%{-webkit-transform: scale(1, 1);transform: scale(1, 1);}47.78%{-webkit-transform: scale(1.15, 1.15);transform: scale(1.15, 1.15);}100%{-webkit-transform: scale(1, 1);transform: scale(1, 1);}}@keyframes B15r7dBYeX_HydC2SFx7_Animation{0%{-webkit-transform: scale(1, 1);transform: scale(1, 1);}47.78%{-webkit-transform: scale(1.15, 1.15);transform: scale(1.15, 1.15);}100%{-webkit-transform: scale(1, 1);transform: scale(1, 1);}}@-webkit-keyframes SySB7dStem_HJfN3rKgX_Animation{0%{-webkit-transform: rotate(405deg);transform: rotate(405deg);}33.33%{-webkit-transform: rotate(450deg);transform: rotate(450deg);}100%{-webkit-transform: rotate(405deg);transform: rotate(405deg);}}@keyframes SySB7dStem_HJfN3rKgX_Animation{0%{-webkit-transform: rotate(405deg);transform: rotate(405deg);}33.33%{-webkit-transform: rotate(450deg);transform: rotate(450deg);}100%{-webkit-transform: rotate(405deg);transform: rotate(405deg);}}@-webkit-keyframes BkLB7dStem_B1AJ3BFlX_Animation{0%{-webkit-transform: rotate(405deg);transform: rotate(405deg);}33.33%{-webkit-transform: rotate(450deg);transform: rotate(450deg);}100%{-webkit-transform: rotate(405deg);transform: rotate(405deg);}}@keyframes BkLB7dStem_B1AJ3BFlX_Animation{0%{-webkit-transform: rotate(405deg);transform: rotate(405deg);}33.33%{-webkit-transform: rotate(450deg);transform: rotate(450deg);}100%{-webkit-transform: rotate(405deg);transform: rotate(405deg);}}@-webkit-keyframes ry7r7dSYeX_S1mxsBKxm_Animation{0%{-webkit-transform: rotate(405deg);transform: rotate(405deg);}33.33%{-webkit-transform: rotate(450deg);transform: rotate(450deg);}100%{-webkit-transform: rotate(405deg);transform: rotate(405deg);}}@keyframes ry7r7dSYeX_S1mxsBKxm_Animation{0%{-webkit-transform: rotate(405deg);transform: rotate(405deg);}33.33%{-webkit-transform: rotate(450deg);transform: rotate(450deg);}100%{-webkit-transform: rotate(405deg);transform: rotate(405deg);}}@-webkit-keyframes SJYHmOSFgm_Bk8I5BFxm_Animation{0%{-webkit-transform: scale(1, 1);transform: scale(1, 1);}47.78%{-webkit-transform: scale(1.5, 1.5);transform: scale(1.5, 1.5);}100%{-webkit-transform: scale(1, 1);transform: scale(1, 1);}}@keyframes SJYHmOSFgm_Bk8I5BFxm_Animation{0%{-webkit-transform: scale(1, 1);transform: scale(1, 1);}47.78%{-webkit-transform: scale(1.5, 1.5);transform: scale(1.5, 1.5);}100%{-webkit-transform: scale(1, 1);transform: scale(1, 1);}}@-webkit-keyframes rJwr7_BKeQ_S1NJKSKlm_Animation{0%{-webkit-transform: rotate(405deg);transform: rotate(405deg);}33.33%{-webkit-transform: rotate(450deg);transform: rotate(450deg);}100%{-webkit-transform: rotate(405deg);transform: rotate(405deg);}}@keyframes rJwr7_BKeQ_S1NJKSKlm_Animation{0%{-webkit-transform: rotate(405deg);transform: rotate(405deg);}33.33%{-webkit-transform: rotate(450deg);transform: rotate(450deg);}100%{-webkit-transform: rotate(405deg);transform: rotate(405deg);}}#ryH7uSKl7 *{-webkit-animation-duration: 3s;animation-duration: 3s;-webkit-animation-iteration-count: infinite;animation-iteration-count: infinite;-webkit-animation-timing-function: cubic-bezier(0, 0, 1, 1);animation-timing-function: cubic-bezier(0, 0, 1, 1);}#S1brQuStg7{fill: #FFCCCC;}#SySB7dStem{fill: #231F20;}#BkLB7dStem{fill: #231F20;}#rJwr7_BKeQ{fill: #231F20;}#B15r7dBYeX{fill: #231F20;}#rJwr7_BKeQ_S1NJKSKlm{-webkit-transform-origin: 50% 50%;transform-origin: 50% 50%;transform-box: fill-box;-webkit-transform: rotate(405deg);transform: rotate(405deg);-webkit-animation-name: rJwr7_BKeQ_S1NJKSKlm_Animation;animation-name: rJwr7_BKeQ_S1NJKSKlm_Animation;}#BJEHQuSKeQ_H11MqBYl7{-webkit-transform-origin: 50% 50%;transform-origin: 50% 50%;transform-box: fill-box;-webkit-transform: scale(1, 0.5);transform: scale(1, 0.5);}#SJYHmOSFgm_Bk8I5BFxm{-webkit-animation-name: SJYHmOSFgm_Bk8I5BFxm_Animation;animation-name: SJYHmOSFgm_Bk8I5BFxm_Animation;-webkit-transform-origin: 50% 50%;transform-origin: 50% 50%;transform-box: fill-box;-webkit-transform: scale(1, 1);transform: scale(1, 1);}#ry7r7dSYeX_S1mxsBKxm{-webkit-transform-origin: 50% 50%;transform-origin: 50% 50%;transform-box: fill-box;-webkit-transform: rotate(405deg);transform: rotate(405deg);-webkit-animation-name: ry7r7dSYeX_S1mxsBKxm_Animation;animation-name: ry7r7dSYeX_S1mxsBKxm_Animation;}#ry7r7dSYeX{-webkit-transform-origin: 50% 50%;transform-origin: 50% 50%;transform-box: fill-box;}#BkLB7dStem_B1AJ3BFlX{-webkit-animation-name: BkLB7dStem_B1AJ3BFlX_Animation;animation-name: BkLB7dStem_B1AJ3BFlX_Animation;-webkit-transform-origin: 50% 50%;transform-origin: 50% 50%;transform-box: fill-box;-webkit-transform: rotate(405deg);transform: rotate(405deg);}#SySB7dStem_HJfN3rKgX{-webkit-animation-name: SySB7dStem_HJfN3rKgX_Animation;animation-name: SySB7dStem_HJfN3rKgX_Animation;-webkit-transform-origin: 50% 50%;transform-origin: 50% 50%;transform-box: fill-box;-webkit-transform: rotate(405deg);transform: rotate(405deg);}#BJEHQuSKeQ_Bkg8nrtlQ{-webkit-transform-origin: 50% 50%;transform-origin: 50% 50%;transform-box: fill-box;-webkit-transform: translate(2px, -2px);transform: translate(2px, -2px);}#B15r7dBYeX_HydC2SFx7{-webkit-animation-name: B15r7dBYeX_HydC2SFx7_Animation;animation-name: B15r7dBYeX_HydC2SFx7_Animation;-webkit-transform-origin: 50% 50%;transform-origin: 50% 50%;transform-box: fill-box;-webkit-transform: scale(1, 1);transform: scale(1, 1);}#rydBm_BtxQ_ryZ76rtlX{-webkit-animation-name: rydBm_BtxQ_ryZ76rtlX_Animation;animation-name: rydBm_BtxQ_ryZ76rtlX_Animation;-webkit-transform-origin: 50% 50%;transform-origin: 50% 50%;transform-box: fill-box;-webkit-transform: scale(1, 1);transform: scale(1, 1);}</style><g display="none" id="ByxHQ_rtgX"><rect x="-173" y="-780.293" width="1282" height="1265.293" display="inline" id="S1brQuStg7"/></g><g id="SJzrQdSYgm"><g id="ry7r7dSYeX_S1mxsBKxm" data-animator-group="true" data-animator-type="1"><polygon points="10.002,48.396 5,57.06 15.004,57.06  " id="ry7r7dSYeX"/></g><path d="M90.197,23.407c-0.269,0.415-0.588,0.497-1.715,0.603c-0.272,0.025-0.578,0.057-0.898,0.106   c-1.122,0.173-2.45,0.598-3.397,2.057c-0.946,1.458-0.793,2.844-0.494,3.938c0.086,0.312,0.182,0.605,0.269,0.864   c0.363,1.071,0.418,1.395,0.15,1.808c-0.268,0.413-0.587,0.494-1.712,0.599c-0.272,0.025-0.579,0.057-0.899,0.106   c-1.121,0.172-2.449,0.597-3.395,2.055c-0.52,0.801-0.292,1.872,0.509,2.393c0.291,0.188,0.617,0.278,0.94,0.278   c0.566,0,1.121-0.278,1.452-0.789c0.268-0.412,0.587-0.493,1.712-0.598c1.225-0.115,3.077-0.286,4.294-2.161   c1.216-1.874,0.619-3.636,0.225-4.802c-0.363-1.071-0.418-1.395-0.15-1.809c0.269-0.415,0.589-0.496,1.716-0.602   c1.226-0.116,3.078-0.288,4.295-2.164s0.62-3.637,0.226-4.803c-0.363-1.072-0.418-1.397-0.149-1.812   c0.52-0.802,0.292-1.872-0.51-2.393c-0.8-0.517-1.872-0.292-2.392,0.51c-0.947,1.459-0.794,2.845-0.495,3.94   c0.085,0.312,0.181,0.605,0.269,0.863C90.411,22.667,90.466,22.993,90.197,23.407z" id="BJEHQuSKeQ"/><g id="SySB7dStem_HJfN3rKgX" data-animator-group="true" data-animator-type="1"><polygon points="92.501,84.882 94.03,83.353 91.21,80.534 94.03,77.715 92.501,76.186 90.972,74.658    88.153,77.477 85.334,74.658 82.276,77.715 85.095,80.534 82.276,83.353 83.805,84.882 85.334,86.411 88.153,83.592 90.972,86.411     " id="SySB7dStem"/></g><g id="BkLB7dStem_B1AJ3BFlX" data-animator-group="true" data-animator-type="1"><polygon points="19.73,81.388 19.73,79.226 15.743,79.226 15.743,75.238 11.419,75.238 11.419,79.226    7.432,79.226 7.432,83.549 11.419,83.549 11.419,87.537 15.743,87.537 15.743,83.549 19.73,83.549  " id="BkLB7dStem"/></g><g id="rJwr7_BKeQ_S1NJKSKlm" data-animator-group="true" data-animator-type="1"><polygon points="70.746,8.689 67.926,11.509 65.107,8.689 62.049,11.747 64.869,14.566 62.049,17.386    65.107,20.444 67.926,17.624 70.746,20.444 73.803,17.386 70.984,14.566 73.803,11.747  " id="rJwr7_BKeQ"/></g><g id="rydBm_BtxQ_ryZ76rtlX" data-animator-group="true" data-animator-type="2"><path d="M33.809,13.133c0,1.891,1.539,3.429,3.43,3.429c1.891,0,3.43-1.538,3.43-3.429s-1.538-3.43-3.43-3.43   C35.348,9.703,33.809,11.242,33.809,13.133z" id="rydBm_BtxQ"/></g><g id="SJYHmOSFgm_Bk8I5BFxm" data-animator-group="true" data-animator-type="2"><path d="M88.14,55.015c0,1.891,1.538,3.43,3.43,3.43S95,56.907,95,55.015c0-1.891-1.539-3.43-3.43-3.43S88.14,53.124,88.14,55.015z   " id="SJYHmOSFgm"/></g><g id="B15r7dBYeX_HydC2SFx7" data-animator-group="true" data-animator-type="2"><path d="M18.777,32.995c3.403,0,6.171-2.768,6.171-6.171c0-3.402-2.768-6.17-6.171-6.17   c-3.402,0-6.17,2.768-6.17,6.17C12.607,30.227,15.375,32.995,18.777,32.995z M18.777,24.113c1.495,0,2.712,1.216,2.712,2.711   c0,1.496-1.216,2.712-2.712,2.712c-1.495,0-2.711-1.216-2.711-2.712C16.066,25.329,17.282,24.113,18.777,24.113z" id="B15r7dBYeX"/></g><path d="M76.925,39.684c0-2.048-1.666-3.715-3.715-3.715h-5.043V30.76c0-1.383-0.625-2.674-1.715-3.542   c-1.111-0.886-2.546-1.209-3.936-0.89l-6.884,1.585c-0.686-0.427-1.489-0.686-2.355-0.686h-5.25c-0.849,0-1.635,0.251-2.313,0.663   l-6.785-1.562c-1.39-0.319-2.824,0.006-3.935,0.889c-1.09,0.869-1.715,2.16-1.715,3.543v5.209h-5.043   c-2.048,0-3.715,1.666-3.715,3.715v6.504c0,1.559,0.967,2.891,2.331,3.441v41.681h47.741V49.629   c1.364-0.55,2.331-1.883,2.331-3.441V39.684z M63.438,30.339c0.223-0.048,0.378,0.04,0.451,0.098   c0.075,0.059,0.164,0.164,0.164,0.323v4.827h-6.295v-3.879c0-0.021-0.006-0.04-0.006-0.061L63.438,30.339z M47.66,31.709   c0-0.202,0.164-0.367,0.366-0.367h5.25c0.202,0,0.367,0.165,0.367,0.367v4.261H47.66V31.709z M37.393,30.76   c0-0.16,0.089-0.264,0.164-0.323c0.073-0.058,0.231-0.152,0.449-0.098l5.549,1.277c-0.001,0.032-0.009,0.061-0.009,0.093v3.879   h-6.153V30.76z M28.635,40.084h44.175v5.704H28.635V40.084z M53.644,86.721H47.66V49.903h5.983V86.721z M30.967,49.903h12.579   v37.294H30.967V49.903z M70.479,87.196H57.758V49.903h12.722V87.196z" id="rkoHQ_BFeX"/></g><script>(function(){var a=document.querySelector('#ryH7uSKl7'),b=a.querySelectorAll('style'),c=function(d){b.forEach(function(f){var g=f.textContent;g&amp;&amp;(f.textContent=g.replace(/transform-box:[^;\r\n]*/gi,'transform-box: '+d))})};c('initial'),window.requestAnimationFrame(function(){return c('fill-box')})})();</script></svg>