<svg viewBox="0 0 165 152" fill="none" xmlns="http://www.w3.org/2000/svg" id="Sksq48KxX"><style>@-webkit-keyframes BkHs54LKe7_SJ72LLtx7_Animation{0%{-webkit-transform:  scale(1, 1);transform:  scale(1, 1);}50%{-webkit-transform:  scale(1.5, 1.5);transform:  scale(1.5, 1.5);}100%{-webkit-transform:  scale(1, 1);transform:  scale(1, 1);}}@keyframes BkHs54LKe7_SJ72LLtx7_Animation{0%{-webkit-transform:  scale(1, 1);transform:  scale(1, 1);}50%{-webkit-transform:  scale(1.5, 1.5);transform:  scale(1.5, 1.5);}100%{-webkit-transform:  scale(1, 1);transform:  scale(1, 1);}}@-webkit-keyframes HJ8jcNLFlX_rkKYL8KeX_Animation{0%{-webkit-transform:  scale(1, 1);transform:  scale(1, 1);}50%{-webkit-transform:  scale(1.25, 1.25);transform:  scale(1.25, 1.25);}100%{-webkit-transform:  scale(1, 1);transform:  scale(1, 1);}}@keyframes HJ8jcNLFlX_rkKYL8KeX_Animation{0%{-webkit-transform:  scale(1, 1);transform:  scale(1, 1);}50%{-webkit-transform:  scale(1.25, 1.25);transform:  scale(1.25, 1.25);}100%{-webkit-transform:  scale(1, 1);transform:  scale(1, 1);}}@-webkit-keyframes rJ4ocELKlQ_BJTPILYxQ_Animation{0%{-webkit-transform:  rotate(0deg);transform:  rotate(0deg);}50%{-webkit-transform:  rotate(180deg);transform:  rotate(180deg);}100%{-webkit-transform:  rotate(0deg);transform:  rotate(0deg);}}@keyframes rJ4ocELKlQ_BJTPILYxQ_Animation{0%{-webkit-transform:  rotate(0deg);transform:  rotate(0deg);}50%{-webkit-transform:  rotate(180deg);transform:  rotate(180deg);}100%{-webkit-transform:  rotate(0deg);transform:  rotate(0deg);}}@-webkit-keyframes SJMjqNUtl7_HyMS8Itgm_Animation{0%{-webkit-transform:  rotate(0deg);transform:  rotate(0deg);}50%{-webkit-transform:  rotate(180deg);transform:  rotate(180deg);}100%{-webkit-transform:  rotate(360deg);transform:  rotate(360deg);}}@keyframes SJMjqNUtl7_HyMS8Itgm_Animation{0%{-webkit-transform:  rotate(0deg);transform:  rotate(0deg);}50%{-webkit-transform:  rotate(180deg);transform:  rotate(180deg);}100%{-webkit-transform:  rotate(360deg);transform:  rotate(360deg);}}@-webkit-keyframes r1XjcN8teQ_BkDXUIKxQ_Animation{0%{-webkit-transform:  rotate(0deg);transform:  rotate(0deg);}50%{-webkit-transform:  rotate(180deg);transform:  rotate(180deg);}100%{-webkit-transform:  rotate(360deg);transform:  rotate(360deg);}}@keyframes r1XjcN8teQ_BkDXUIKxQ_Animation{0%{-webkit-transform:  rotate(0deg);transform:  rotate(0deg);}50%{-webkit-transform:  rotate(180deg);transform:  rotate(180deg);}100%{-webkit-transform:  rotate(360deg);transform:  rotate(360deg);}}@-webkit-keyframes Hkxi54LFxQ_S1JSHIYlm_Animation{0%{-webkit-transform:  rotate(0deg);transform:  rotate(0deg);}50%{-webkit-transform:  rotate(180deg);transform:  rotate(180deg);}100%{-webkit-transform:  rotate(360deg);transform:  rotate(360deg);}}@keyframes Hkxi54LFxQ_S1JSHIYlm_Animation{0%{-webkit-transform:  rotate(0deg);transform:  rotate(0deg);}50%{-webkit-transform:  rotate(180deg);transform:  rotate(180deg);}100%{-webkit-transform:  rotate(360deg);transform:  rotate(360deg);}}@-webkit-keyframes SJDi9V8tem_Hkz6VLFxX_Animation{0%{-webkit-transform:  scale(1, 1);transform:  scale(1, 1);}50%{-webkit-transform:  scale(1.25, 1.25);transform:  scale(1.25, 1.25);}100%{-webkit-transform:  scale(1, 1);transform:  scale(1, 1);}}@keyframes SJDi9V8tem_Hkz6VLFxX_Animation{0%{-webkit-transform:  scale(1, 1);transform:  scale(1, 1);}50%{-webkit-transform:  scale(1.25, 1.25);transform:  scale(1.25, 1.25);}100%{-webkit-transform:  scale(1, 1);transform:  scale(1, 1);}}#Sksq48KxX *{-webkit-animation-duration:  5s;animation-duration:  5s;-webkit-animation-iteration-count:  infinite;animation-iteration-count:  infinite;-webkit-animation-timing-function:  cubic-bezier(0, 0, 1, 1);animation-timing-function:  cubic-bezier(0, 0, 1, 1);}#Hkxi54LFxQ{-webkit-transform:  translate(0px, 73.05px);transform:  translate(0px, 73.05px);fill: #C7CCEC;}#Hybo94Lte7{-webkit-transform:  translate(133.516px, 13.4565px);transform:  translate(133.516px, 13.4565px);fill: #C7CCEC;}#SJMjqNUtl7{-webkit-transform:  translate(141.673px, 121.365px);transform:  translate(141.673px, 121.365px);fill: #FFDF9C;}#r1XjcN8teQ{-webkit-transform:  translate(4.45868px, 122.432px);transform:  translate(4.45868px, 122.432px);fill: #FED3DA;}#rJ4ocELKlQ{-webkit-transform:  translate(104.59px);transform:  translate(104.59px);fill: #FC6681;fill-opacity: 0.29;}#BkHs54LKe7{-webkit-transform:  translate(52.8165px, 1.86549px);transform:  translate(52.8165px, 1.86549px);fill: #FFDF9C;}#HJ8jcNLFlX{-webkit-transform:  translate(152.423px, 78.9169px);transform:  translate(152.423px, 78.9169px);fill: #C7CCEC;}#SJDi9V8tem{-webkit-transform:  translate(13.9462px, 22.0123px);transform:  translate(13.9462px, 22.0123px);fill: #FED3DA;}#ryOj5ELFgX{-webkit-transform:  translate(42px, 55px);transform:  translate(42px, 55px);fill: #F9E4E4;}#BkKo5NLFgQ{-webkit-transform:  translate(77px, 74px);transform:  translate(77px, 74px);fill: #EA7070;}#rk5o9EUFxm{-webkit-transform:  translate(59px, 38px);transform:  translate(59px, 38px);fill: #EA7070;}#rkijqEIKe7{-webkit-transform:  translate(35.7885px, 32.2299px);transform:  translate(35.7885px, 32.2299px);fill: #666666;}#SJDi9V8tem_Hkz6VLFxX{-webkit-animation-name:  SJDi9V8tem_Hkz6VLFxX_Animation;animation-name:  SJDi9V8tem_Hkz6VLFxX_Animation;-webkit-transform-origin:  50% 50%;transform-origin:  50% 50%;transform-box:  fill-box;-webkit-transform:  scale(1, 1);transform:  scale(1, 1);-webkit-animation-timing-function:  cubic-bezier(0.42, 0, 0.58, 1);animation-timing-function:  cubic-bezier(0.42, 0, 0.58, 1);}#Hkxi54LFxQ_S1JSHIYlm{-webkit-animation-name:  Hkxi54LFxQ_S1JSHIYlm_Animation;animation-name:  Hkxi54LFxQ_S1JSHIYlm_Animation;-webkit-transform-origin:  50% 50%;transform-origin:  50% 50%;transform-box:  fill-box;-webkit-animation-timing-function:  cubic-bezier(0.42, 0, 0.58, 1);animation-timing-function:  cubic-bezier(0.42, 0, 0.58, 1);}#r1XjcN8teQ_BkDXUIKxQ{-webkit-animation-name:  r1XjcN8teQ_BkDXUIKxQ_Animation;animation-name:  r1XjcN8teQ_BkDXUIKxQ_Animation;-webkit-transform-origin:  50% 50%;transform-origin:  50% 50%;transform-box:  fill-box;}#SJMjqNUtl7_HyMS8Itgm{-webkit-animation-name:  SJMjqNUtl7_HyMS8Itgm_Animation;animation-name:  SJMjqNUtl7_HyMS8Itgm_Animation;-webkit-transform-origin:  50% 50%;transform-origin:  50% 50%;transform-box:  fill-box;}#rJ4ocELKlQ_BJTPILYxQ{-webkit-animation-name:  rJ4ocELKlQ_BJTPILYxQ_Animation;animation-name:  rJ4ocELKlQ_BJTPILYxQ_Animation;-webkit-transform-origin:  50% 50%;transform-origin:  50% 50%;transform-box:  fill-box;}#HJ8jcNLFlX_rkKYL8KeX{-webkit-animation-name:  HJ8jcNLFlX_rkKYL8KeX_Animation;animation-name:  HJ8jcNLFlX_rkKYL8KeX_Animation;-webkit-transform-origin:  50% 50%;transform-origin:  50% 50%;transform-box:  fill-box;}#BkHs54LKe7_SJ72LLtx7{-webkit-animation-name:  BkHs54LKe7_SJ72LLtx7_Animation;animation-name:  BkHs54LKe7_SJ72LLtx7_Animation;-webkit-transform-origin:  50% 50%;transform-origin:  50% 50%;transform-box:  fill-box;}</style>
<g id="Hkxi54LFxQ_S1JSHIYlm" data-animator-group="true" data-animator-type="1"><path d="M9.17033 -1.68432e-07L0 15.9394H18.3407L9.17033 -1.68432e-07Z" id="Hkxi54LFxQ"/></g>
<path d="M22.6783 13.6206C22.1851 14.3841 21.6003 14.5349 19.5341 14.7299C19.0354 14.7759 18.4744 14.8348 17.8878 14.9249C15.8308 15.2432 13.3961 16.0251 11.6599 18.7093C9.92559 21.3916 10.2061 23.9414 10.7543 25.9541C10.9119 26.5281 11.0879 27.0671 11.2474 27.5436C11.9129 29.514 12.0138 30.11 11.5224 30.8698C11.0311 31.6297 10.4463 31.7787 8.38376 31.9718C7.8851 32.0178 7.32226 32.0767 6.73559 32.1668C4.68043 32.4833 2.24577 33.2652 0.511434 35.9475C-0.4419 37.4211 -0.0239088 39.3915 1.44459 40.35C1.97809 40.6958 2.57576 40.8614 3.16793 40.8614C4.2056 40.8614 5.2231 40.35 5.82994 39.4099C6.32127 38.6519 6.9061 38.5029 8.9686 38.3097C11.2144 38.0981 14.6098 37.7835 16.8409 34.334C19.0703 30.8864 17.9758 27.6448 17.2534 25.4997C16.5879 23.5293 16.4871 22.9333 16.9784 22.1716C17.4716 21.4081 18.0583 21.2591 20.1244 21.0641C22.3721 20.8507 25.7674 20.5343 27.9986 17.0829C30.2298 13.6316 29.1353 10.3919 28.4129 8.24673C27.7474 6.27455 27.6466 5.67664 28.1398 4.91315C29.0931 3.43769 28.6751 1.46918 27.2048 0.510685C25.7381 -0.440453 23.7728 -0.0265143 22.8194 1.44895C21.0833 4.13311 21.3638 6.68297 21.9119 8.69747C22.0678 9.27146 22.2438 9.8105 22.4051 10.2851C23.0706 12.2592 23.1714 12.8589 22.6783 13.6206Z" id="Hybo94Lte7"/>
<g id="SJMjqNUtl7_HyMS8Itgm" data-animator-group="true" data-animator-type="1"><path d="M18.7458 18.8094L21.549 15.9964L16.379 10.8102L21.549 5.62404L18.7458 2.8111L15.9427 -5.27753e-06L10.7745 5.18618L5.60633 -5.27753e-06L1.79036e-06 5.62404L5.16817 10.8102L1.79036e-06 15.9964L2.80317 18.8094L5.60633 21.6223L10.7745 16.4361L15.9427 21.6223L18.7458 18.8094Z" id="SJMjqNUtl7"/></g>
<g id="r1XjcN8teQ_BkDXUIKxQ" data-animator-group="true" data-animator-type="1"><path d="M22.5463 11.3143V7.33682H15.2368V-1.9089e-06H7.3095V7.33682H2.93732e-07V15.29H7.3095V22.6268H15.2368V15.29H22.5463V11.3143Z" id="r1XjcN8teQ"/></g>
<g id="rJ4ocELKlQ_BJTPILYxQ" data-animator-group="true" data-animator-type="1"><path d="M15.9445 2.38612e-07L10.7745 5.18803L5.60634 2.38612e-07L-3.91642e-07 5.62588L5.17001 10.8121L-3.91642e-07 16.0001L5.60634 21.626L10.7745 16.438L15.9445 21.626L21.549 16.0001L16.3808 10.8121L21.549 5.62588L15.9445 2.38612e-07Z" id="rJ4ocELKlQ"/></g>
<g id="BkHs54LKe7_SJ72LLtx7" data-animator-group="true" data-animator-type="2"><path d="M-3.46883e-06 6.31026C-3.46883e-06 9.78918 2.8215 12.6187 6.28833 12.6187C9.75516 12.6187 12.5767 9.78918 12.5767 6.31026C12.5767 2.83134 9.757 1.26324e-07 6.28833 1.26324e-07C2.8215 1.26324e-07 -3.46883e-06 2.83134 -3.46883e-06 6.31026Z" id="BkHs54LKe7"/></g>
<g id="HJ8jcNLFlX_rkKYL8KeX" data-animator-group="true" data-animator-type="2"><path d="M-1.11898e-06 6.31026C-1.11898e-06 9.78918 2.81967 12.6205 6.28833 12.6205C9.757 12.6205 12.5767 9.79102 12.5767 6.31026C12.5767 2.83134 9.75517 -1.68432e-06 6.28833 -1.68432e-06C2.8215 -1.68432e-06 -1.11898e-06 2.83134 -1.11898e-06 6.31026Z" id="HJ8jcNLFlX"/></g>
<g id="SJDi9V8tem_Hkz6VLFxX" data-animator-group="true" data-animator-type="2"><path d="M11.3117 22.7041C17.5505 22.7041 22.6252 17.6117 22.6252 11.3511C22.6252 5.09236 17.5505 -1.23517e-06 11.3117 -1.23517e-06C5.07467 -1.23517e-06 6.43412e-07 5.09236 6.43412e-07 11.3511C6.43412e-07 17.6117 5.07467 22.7041 11.3117 22.7041ZM11.3117 6.36361C14.0525 6.36361 16.2837 8.60072 16.2837 11.3511C16.2837 14.1033 14.0543 16.3404 11.3117 16.3404C8.57083 16.3404 6.3415 14.1033 6.3415 11.3511C6.3415 8.60072 8.57083 6.36361 11.3117 6.36361Z" id="SJDi9V8tem"/></g>
<rect width="84" height="90" id="ryOj5ELFgX"/>
<rect width="14" height="71" id="BkKo5NLFgQ"/>
<rect width="50" height="13" id="rk5o9EUFxm"/>
<path d="M96.074 24.7924C96.074 21.0246 93.0197 17.9578 89.2632 17.9578H80.0177V8.37465C80.0177 5.83031 78.8718 3.45523 76.8735 1.85834C74.8367 0.228347 72.2058 -0.365887 69.6575 0.220986L57.0368 3.13695C55.7792 2.35139 54.307 1.8749 52.7193 1.8749H43.0943C41.5378 1.8749 40.0968 2.33667 38.8538 3.09464L26.4147 0.220986C23.8663 -0.365887 21.2373 0.232024 19.2005 1.8565C17.2022 3.45522 16.0563 5.83031 16.0563 8.37465V17.9578H6.81083C3.05617 17.9578 -1.67847e-07 21.0228 -1.67847e-07 24.7924V36.7579C-1.67847e-07 39.6261 1.77283 42.0766 4.2735 43.0884V119.77H91.7987V43.0884C94.2993 42.0766 96.0722 39.6242 96.0722 36.7579V24.7924H96.074ZM71.3478 7.60013C71.7567 7.51182 72.0408 7.67372 72.1747 7.78042C72.3122 7.88897 72.4753 8.08214 72.4753 8.37465V17.255H60.9345V10.1187C60.9345 10.0801 60.9235 10.0451 60.9235 10.0065L71.3478 7.60013ZM42.4215 10.1206C42.4215 9.74893 42.7222 9.44537 43.0925 9.44537H52.7175C53.0878 9.44537 53.3903 9.74893 53.3903 10.1206V17.9596H42.4215V10.1206ZM23.5987 8.37465C23.5987 8.0803 23.7618 7.88897 23.8993 7.78042C24.0332 7.67372 24.3228 7.50078 24.7225 7.60013L34.8957 9.94946C34.8938 10.0083 34.8792 10.0617 34.8792 10.1206V17.2569H23.5987V8.37465ZM7.54233 25.5283H88.5298V36.0221H7.54233V25.5283ZM53.3922 111.328H42.4215V43.5925H53.3903V111.328H53.3922ZM11.8177 43.5925H34.8792V112.203H11.8177V43.5925ZM84.2563 112.201H60.9345V43.5925H84.2582V112.201H84.2563Z" id="rkijqEIKe7"/>
<script>(function(){var a=document.querySelector('#Sksq48KxX'),b=a.querySelectorAll('style'),c=function(d){b.forEach(function(f){var g=f.textContent;g&amp;&amp;(f.textContent=g.replace(/transform-box:[^;\r\n]*/gi,'transform-box: '+d))})};c('initial'),window.requestAnimationFrame(function(){return c('fill-box')})})();</script></svg>