<svg xmlns="http://www.w3.org/2000/svg" xmlns:xlink="http://www.w3.org/1999/xlink" xml:space="preserve" version="1.1" style="shape-rendering:geometricPrecision;text-rendering:geometricPrecision;image-rendering:optimizeQuality;" viewBox="0 0 60000 60000" x="0px" y="0px" fill-rule="evenodd" clip-rule="evenodd"><defs><style type="text/css">
   
    .fil0 {fill:black;fill-rule:nonzero}
   
  </style></defs><g><path class="fil0" d="M34458 19466c-67,-154 3,-333 156,-400 154,-67 333,3 400,156 406,936 861,1751 1378,2466l12027 -11434 10 -10c397,-344 729,-500 957,-515 163,-10 296,39 394,139 97,99 144,231 135,389 -13,228 -165,555 -481,916l-8 8 -11448 12232c789,672 1693,1225 2740,1694 153,69 220,249 151,402 -69,153 -249,220 -402,151 -1408,-632 -2576,-1412 -3562,-2421 -263,-269 -513,-554 -750,-857 -10,-8 -19,-16 -27,-25 -24,-25 -42,-53 -56,-82 -616,-806 -1148,-1733 -1615,-2809zm2306 2705c184,225 375,439 575,643 63,65 127,128 192,191l11447 -12232 0 0c130,-148 219,-275 272,-377 -109,57 -250,157 -422,306l0 0 -12063 11469zm-2980 -385c-82,-146 -30,-331 116,-413 146,-82 331,-30 413,116 595,1062 1250,1888 2007,2607 762,723 1634,1344 2657,1991 142,90 184,277 94,418 -90,142 -277,184 -418,94 -1053,-666 -1954,-1308 -2752,-2065 -802,-761 -1493,-1631 -2118,-2748zm-12665 13003c-148,-78 -206,-262 -128,-410 78,-148 262,-206 410,-128 1096,576 2017,1242 2801,2025 785,784 1428,1681 1971,2719 78,148 21,332 -128,410 -148,78 -332,21 -410,-128 -516,-987 -1124,-1836 -1861,-2573 -738,-738 -1610,-1367 -2655,-1916zm-2456 725c-154,-67 -224,-246 -156,-400 67,-154 246,-224 400,-156 1535,666 2765,1463 3774,2449 1009,985 1788,2154 2421,3562 69,153 1,332 -151,402 -153,69 -332,1 -402,-151 -356,-793 -759,-1504 -1226,-2145l-10113 10806c-37,40 -85,94 -129,143 -213,241 -343,389 -754,501 -358,98 -750,103 -1128,22 -394,-85 -774,-263 -1086,-531 -316,-271 -562,-632 -684,-1077 -98,-360 -113,-773 -14,-1234 104,-484 170,-545 442,-793 41,-37 87,-80 126,-117l10721 -10193c-609,-399 -1286,-758 -2042,-1087zm3592 2324c-321,-314 -668,-608 -1042,-885l-10811 10278c-59,56 -100,93 -135,126 -157,144 -196,179 -259,473 -77,360 -67,677 7,949 87,320 265,580 494,776 233,200 519,334 815,398 284,61 576,57 842,-15 236,-64 320,-160 458,-316 37,-42 77,-88 142,-157l10178 -10876c-217,-262 -447,-512 -690,-750zm-4981 4829c276,276 -340,1545 -1301,2799 -325,424 -685,856 -1054,1251 -371,397 -752,758 -1115,1039 -774,597 -1497,839 -1985,377 -463,-438 -288,-1097 231,-1820 255,-354 597,-732 984,-1106 385,-373 809,-738 1230,-1071 1324,-1047 2724,-1755 3011,-1469zm-1782 2429c785,-1025 1411,-1940 1352,-1999 -71,-71 -1104,646 -2202,1514 -414,327 -824,680 -1186,1030 -361,349 -679,700 -913,1026 -335,466 -491,851 -305,1027 213,202 664,-7 1195,-417 336,-260 693,-599 1045,-975 354,-379 701,-795 1016,-1205z"></path><path class="fil0" d="M24807 19466c67,-154 -3,-333 -156,-400 -154,-67 -333,3 -400,156 -406,936 -861,1751 -1378,2466l-12027 -11434 -10 -10c-397,-344 -729,-500 -957,-515 -163,-10 -296,39 -394,139 -97,99 -144,231 -135,389 13,228 165,555 481,916l8 8 11448 12232c-789,672 -1693,1225 -2740,1694 -153,69 -220,249 -151,402 69,153 249,220 402,151 1408,-632 2576,-1412 3562,-2421 263,-269 513,-554 750,-857 10,-8 19,-16 27,-25 24,-25 42,-53 56,-82 616,-806 1148,-1733 1615,-2809zm-2306 2705c-184,225 -375,439 -575,643 -63,65 -127,128 -192,191l-11447 -12232 0 0c-130,-148 -219,-275 -272,-377 109,57 250,157 422,306l0 0 12063 11469zm2980 -385c82,-146 30,-331 -116,-413 -146,-82 -331,-30 -413,116 -595,1062 -1250,1888 -2007,2607 -762,723 -1634,1344 -2657,1991 -142,90 -184,277 -94,418 90,142 277,184 418,94 1053,-666 1954,-1308 2752,-2065 802,-761 1493,-1631 2118,-2748zm12665 13003c148,-78 206,-262 128,-410 -78,-148 -262,-206 -410,-128 -1096,576 -2017,1242 -2801,2025 -785,784 -1428,1681 -1971,2719 -78,148 -21,332 128,410 148,78 332,21 410,-128 516,-987 1124,-1836 1861,-2573 738,-738 1610,-1367 2655,-1916zm2456 725c154,-67 224,-246 156,-400 -67,-154 -246,-224 -400,-156 -1535,666 -2765,1463 -3774,2449 -1009,985 -1788,2154 -2421,3562 -69,153 -1,332 151,402 153,69 332,1 402,-151 356,-793 759,-1504 1226,-2145l10113 10806c37,40 85,94 129,143 213,241 343,389 754,501 358,98 750,103 1128,22 394,-85 774,-263 1086,-531 316,-271 562,-632 684,-1077 98,-360 113,-773 14,-1234 -104,-484 -170,-545 -442,-793 -41,-37 -87,-80 -126,-117l-10721 -10193c609,-399 1286,-758 2042,-1087zm-3592 2324c321,-314 668,-608 1042,-885l10811 10278c59,56 100,93 135,126 157,144 196,179 259,473 77,360 67,677 -7,949 -87,320 -265,580 -494,776 -233,200 -519,334 -815,398 -284,61 -576,57 -842,-15 -236,-64 -320,-160 -458,-316 -37,-42 -77,-88 -142,-157l-10178 -10876c217,-262 447,-512 690,-750zm4981 4829c-276,276 340,1545 1301,2799 325,424 685,856 1054,1251 371,397 752,758 1115,1039 774,597 1497,839 1985,377 463,-438 288,-1097 -231,-1820 -255,-354 -597,-732 -984,-1106 -385,-373 -809,-738 -1230,-1071 -1324,-1047 -2724,-1755 -3011,-1469zm1782 2429c-785,-1025 -1411,-1940 -1352,-1999 71,-71 1104,646 2202,1514 414,327 824,680 1186,1030 361,349 679,700 913,1026 335,466 491,851 305,1027 -213,202 -664,-7 -1195,-417 -336,-260 -693,-599 -1045,-975 -354,-379 -701,-795 -1016,-1205z"></path></g></svg>