<svg xmlns="http://www.w3.org/2000/svg" xmlns:xlink="http://www.w3.org/1999/xlink" version="1.1" x="0px" y="0px" viewBox="0 0 64 64" style="enable-background:new 0 0 64 64;" xml:space="preserve"><g><path d="M8,5C6.346,5,5,6.346,5,8s1.346,3,3,3s3-1.346,3-3S9.654,5,8,5z M8,9C7.448,9,7,8.552,7,8s0.448-1,1-1s1,0.448,1,1   S8.552,9,8,9z"></path><path d="M56,1H8C4.141,1,1,4.141,1,8s3.141,7,7,7h5v48h50V8C63,4.141,59.859,1,56,1z M15,29.454C16.012,28.623,19.701,26,26,26   c4.706,0,7.986,2.108,11.459,4.341C41.022,32.632,44.706,35,50,35c5.896,0,9.207-1.684,11-3.211v6.981   C60.609,39.499,58.301,43,50,43c-4.706,0-7.986-2.108-11.459-4.341C34.978,36.368,31.294,34,26,34c-5.384,0-9.037,1.721-11,2.986   V29.454z M56,3c2.757,0,5,2.243,5,5v20.77C60.609,29.499,58.301,33,50,33c-4.706,0-7.986-2.108-11.459-4.341   C34.978,26.368,31.294,24,26,24c-5.384,0-9.037,1.721-11,2.986V8c0-1.958-0.81-3.728-2.111-5H56z M3,8c0-2.757,2.243-5,5-5   s5,2.243,5,5s-2.243,5-5,5S3,10.757,3,8z M12.889,13c0.037-0.037,0.074-0.073,0.111-0.111V13H12.889z M15,61V39.454   C16.012,38.623,19.701,36,26,36c4.706,0,7.986,2.108,11.459,4.341C41.022,42.632,44.706,45,50,45c5.896,0,9.207-1.684,11-3.211V61   H15z"></path><rect x="57" y="57" width="2" height="2"></rect><rect x="53" y="57" width="2" height="2"></rect><rect x="49" y="57" width="2" height="2"></rect><rect x="45" y="57" width="2" height="2"></rect><rect x="41" y="57" width="2" height="2"></rect><rect x="37" y="57" width="2" height="2"></rect><rect x="33" y="57" width="2" height="2"></rect><rect x="29" y="57" width="2" height="2"></rect><rect x="25" y="57" width="2" height="2"></rect><rect x="21" y="57" width="2" height="2"></rect><rect x="17" y="57" width="2" height="2"></rect></g></svg>