<svg xmlns="http://www.w3.org/2000/svg" xmlns:xlink="http://www.w3.org/1999/xlink" version="1.1" x="0px" y="0px" viewBox="0 0 100 100" enable-background="new 0 0 100 100" xml:space="preserve"><path d="M59.831,67.105H15.17c-4.326,0-7.846-3.52-7.846-7.845s3.52-7.845,7.846-7.845h36.726c2.145,0,3.89,1.745,3.89,3.89  s-1.745,3.89-3.89,3.89H29.859c-0.276,0-0.5-0.224-0.5-0.5s0.224-0.5,0.5-0.5h22.036c1.594,0,2.89-1.296,2.89-2.89  s-1.296-2.89-2.89-2.89H15.17c-3.774,0-6.846,3.07-6.846,6.845s3.071,6.845,6.846,6.845h44.661c4.868,0,9.509-2.091,12.734-5.736  l17.166-19.404c2.24-2.534,3.475-5.792,3.475-9.173V26.49c0-3.774-3.071-6.845-6.846-6.845H52.25c-4.262,0-8.432,1.478-11.742,4.16  L10.017,49.082c-0.214,0.176-0.529,0.146-0.704-0.065c-0.177-0.213-0.146-0.528,0.065-0.704l30.496-25.28  c3.492-2.83,7.886-4.387,12.376-4.387h34.11c4.326,0,7.846,3.52,7.846,7.845v5.302c0,3.625-1.323,7.118-3.726,9.835L73.313,61.031  C69.899,64.892,64.985,67.105,59.831,67.105z M71.627,88.996L91.148,63.66c1.972-2.56,3.058-5.748,3.058-8.979V42.831  c0-0.276-0.224-0.5-0.5-0.5s-0.5,0.224-0.5,0.5v11.851c0,3.011-1.013,5.982-2.851,8.368L70.834,88.386  c-2.461,3.194-6.337,5.101-10.368,5.101H14.04c-3.774,0-6.846-3.07-6.846-6.845v-7.91c0-3.774,3.071-6.846,6.846-6.846h45.2  c3.774,0,6.845,3.071,6.845,6.846s-3.07,6.845-6.845,6.845H23.645c-1.594,0-2.89-1.296-2.89-2.89s1.296-2.891,2.89-2.891H44.55  c0.276,0,0.5-0.224,0.5-0.5s-0.224-0.5-0.5-0.5H23.645c-2.145,0-3.89,1.745-3.89,3.891c0,2.145,1.745,3.89,3.89,3.89H59.24  c4.325,0,7.845-3.52,7.845-7.845c0-4.326-3.52-7.846-7.845-7.846h-45.2c-4.326,0-7.846,3.52-7.846,7.846v7.91  c0,4.325,3.52,7.845,7.846,7.845h46.426C64.805,94.486,68.978,92.435,71.627,88.996z M75.624,38.23l2.313-2.22  c0.199-0.19,0.205-0.508,0.014-0.707c-0.19-0.198-0.507-0.205-0.707-0.014l-2.313,2.22c-0.199,0.19-0.205,0.508-0.014,0.707  c0.098,0.102,0.229,0.153,0.36,0.153C75.402,38.37,75.526,38.324,75.624,38.23z M65.056,48.378l8.783-8.433  c0.199-0.191,0.205-0.508,0.014-0.707c-0.19-0.198-0.507-0.205-0.707-0.014l-8.783,8.433c-0.199,0.19-0.205,0.508-0.014,0.707  c0.098,0.102,0.229,0.153,0.36,0.153C64.834,48.518,64.958,48.472,65.056,48.378z M43.047,39.339  c0.356-2.335,2.067-4.214,4.368-4.789l3.071-0.723l-3.144-0.262c-2.15-0.18-3.91-1.862-4.186-4.002L42.47,24.24l-0.628,5.579  c-0.225,1.993-1.839,3.568-3.837,3.746l-2.825,0.251l2.74,0.73c2.146,0.571,3.723,2.363,4.017,4.565l0.536,4.005L43.047,39.339z   M42.553,31.131c0.579,1.376,1.693,2.476,3.072,3.038c-1.376,0.726-2.461,1.897-3.079,3.321c-0.546-1.412-1.569-2.585-2.893-3.316  C40.991,33.609,42.052,32.504,42.553,31.131z M23.705,29.927c0.173-1.129,1-2.037,2.094-2.312l3.467-0.693l-3.522-0.295  c-1.017-0.085-1.849-0.881-1.979-1.892l-0.609-4.746l-0.553,4.883c-0.105,0.934-0.861,1.671-1.797,1.755l-2.817,0.253l2.733,0.729  c1.032,0.275,1.79,1.137,1.932,2.195l0.505,3.747L23.705,29.927z M23.223,26.124c0.275,0.442,0.656,0.813,1.106,1.076  c-0.452,0.311-0.83,0.714-1.111,1.183c-0.259-0.465-0.616-0.867-1.049-1.179C22.604,26.94,22.969,26.567,23.223,26.124z   M38.729,16.113c0.096-0.631,0.524-1.169,1.118-1.403l2.51-0.991l-2.104-0.278c-0.809-0.105-1.445-0.744-1.55-1.553l-0.814-6.318  l-0.715,6.319c-0.092,0.812-0.72,1.461-1.527,1.578l-1.724,0.251l2.164,0.952c0.571,0.25,0.979,0.791,1.061,1.41l0.74,5.545  L38.729,16.113z M37.943,12.825c0.229,0.496,0.597,0.913,1.055,1.201c-0.461,0.297-0.826,0.723-1.048,1.222  c-0.208-0.498-0.557-0.931-1.003-1.238C37.382,13.718,37.729,13.308,37.943,12.825z M53.216,26.244c0-1.178-0.959-2.137-2.138-2.137  s-2.138,0.959-2.138,2.137c0,1.179,0.959,2.138,2.138,2.138S53.216,27.423,53.216,26.244z M52.216,26.244  c0,0.627-0.511,1.138-1.138,1.138s-1.138-0.511-1.138-1.138s0.511-1.137,1.138-1.137S52.216,25.617,52.216,26.244z M30.898,9.116  c0-0.898-0.731-1.63-1.63-1.63c-0.899,0-1.631,0.731-1.631,1.63s0.731,1.63,1.631,1.63C30.167,10.746,30.898,10.015,30.898,9.116z   M29.898,9.116c0,0.348-0.282,0.63-0.63,0.63s-0.631-0.282-0.631-0.63s0.283-0.63,0.631-0.63S29.898,8.769,29.898,9.116z"></path></svg>