<svg viewBox="0 0 123 123" fill="none" xmlns="http://www.w3.org/2000/svg" id="BJ7xx2ZDKlm"><style>@-webkit-keyframes SkwegnZwKl7_H1V-7DYlm_Animation{0%{-webkit-transform:  translate(0px, 0px);transform:  translate(0px, 0px);}35.33%{-webkit-transform:  translate(0px, -5px);transform:  translate(0px, -5px);}100%{-webkit-transform:  translate(0px, 0px);transform:  translate(0px, 0px);}}@keyframes SkwegnZwKl7_H1V-7DYlm_Animation{0%{-webkit-transform:  translate(0px, 0px);transform:  translate(0px, 0px);}35.33%{-webkit-transform:  translate(0px, -5px);transform:  translate(0px, -5px);}100%{-webkit-transform:  translate(0px, 0px);transform:  translate(0px, 0px);}}@-webkit-keyframes H1YgxnWPtlX_Hy7e7wFlm_Animation{0%{-webkit-transform:  translate(0px, 0px);transform:  translate(0px, 0px);}73.33%{-webkit-transform:  translate(0px, -5px);transform:  translate(0px, -5px);}100%{-webkit-transform:  translate(0px, 0px);transform:  translate(0px, 0px);}}@keyframes H1YgxnWPtlX_Hy7e7wFlm_Animation{0%{-webkit-transform:  translate(0px, 0px);transform:  translate(0px, 0px);}73.33%{-webkit-transform:  translate(0px, -5px);transform:  translate(0px, -5px);}100%{-webkit-transform:  translate(0px, 0px);transform:  translate(0px, 0px);}}@-webkit-keyframes ryilg2bvKe7_rJl1QPYe7_Animation{0%{-webkit-transform:  translate(0px, 0px);transform:  translate(0px, 0px);}18.67%{-webkit-transform:  translate(0px, -5px);transform:  translate(0px, -5px);}100%{-webkit-transform:  translate(0px, 0px);transform:  translate(0px, 0px);}}@keyframes ryilg2bvKe7_rJl1QPYe7_Animation{0%{-webkit-transform:  translate(0px, 0px);transform:  translate(0px, 0px);}18.67%{-webkit-transform:  translate(0px, -5px);transform:  translate(0px, -5px);}100%{-webkit-transform:  translate(0px, 0px);transform:  translate(0px, 0px);}}@-webkit-keyframes Hy6lgnbwFgX_HJnnfDtxQ_Animation{0%{-webkit-transform:  translate(0px, 0px);transform:  translate(0px, 0px);}44.67%{-webkit-transform:  translate(0px, -5px);transform:  translate(0px, -5px);}100%{-webkit-transform:  translate(0px, 0px);transform:  translate(0px, 0px);}}@keyframes Hy6lgnbwFgX_HJnnfDtxQ_Animation{0%{-webkit-transform:  translate(0px, 0px);transform:  translate(0px, 0px);}44.67%{-webkit-transform:  translate(0px, -5px);transform:  translate(0px, -5px);}100%{-webkit-transform:  translate(0px, 0px);transform:  translate(0px, 0px);}}@-webkit-keyframes rJk-lhbPFem_rJnrfwtlQ_Animation{0%{-webkit-transform:  translate(0px, 0px);transform:  translate(0px, 0px);}66.67%{-webkit-transform:  translate(0px, -5px);transform:  translate(0px, -5px);}100%{-webkit-transform:  translate(0px, 0px);transform:  translate(0px, 0px);}}@keyframes rJk-lhbPFem_rJnrfwtlQ_Animation{0%{-webkit-transform:  translate(0px, 0px);transform:  translate(0px, 0px);}66.67%{-webkit-transform:  translate(0px, -5px);transform:  translate(0px, -5px);}100%{-webkit-transform:  translate(0px, 0px);transform:  translate(0px, 0px);}}@-webkit-keyframes BkZZxhbPYl7_ByVXfvKxm_Animation{0%{-webkit-transform:  translate(0px, 0px);transform:  translate(0px, 0px);}30%{-webkit-transform:  translate(0px, -5px);transform:  translate(0px, -5px);}100%{-webkit-transform:  translate(0px, 0px);transform:  translate(0px, 0px);}}@keyframes BkZZxhbPYl7_ByVXfvKxm_Animation{0%{-webkit-transform:  translate(0px, 0px);transform:  translate(0px, 0px);}30%{-webkit-transform:  translate(0px, -5px);transform:  translate(0px, -5px);}100%{-webkit-transform:  translate(0px, 0px);transform:  translate(0px, 0px);}}@-webkit-keyframes S14gl3-vYl7_Animation{0%{opacity:  1;}50%{opacity:  0.2;}100%{opacity:  1;}}@keyframes S14gl3-vYl7_Animation{0%{opacity:  1;}50%{opacity:  0.2;}100%{opacity:  1;}}#BJ7xx2ZDKlm *{-webkit-animation-duration:  5s;animation-duration:  5s;-webkit-animation-iteration-count:  infinite;animation-iteration-count:  infinite;-webkit-animation-timing-function:  cubic-bezier(0, 0, 1, 1);animation-timing-function:  cubic-bezier(0, 0, 1, 1);}#S14gl3-vYl7{-webkit-transform:  translate(27px, 48px);transform:  translate(27px, 48px);fill: #FC6681;-webkit-animation-name:  S14gl3-vYl7_Animation;animation-name:  S14gl3-vYl7_Animation;-webkit-transform-origin:  50% 50%;transform-origin:  50% 50%;transform-box:  fill-box;opacity:  1;-webkit-animation-timing-function:  cubic-bezier(0.42, 0, 0.58, 1);animation-timing-function:  cubic-bezier(0.42, 0, 0.58, 1);}#SkSgl2bDteQ{-webkit-transform:  translate(7.93549px, 7.93549px);transform:  translate(7.93549px, 7.93549px);fill: #666666;}#rkLgen-wYlm{fill: #666666;}#SkwegnZwKl7{-webkit-transform:  translate(111.097px, 111.097px);transform:  translate(111.097px, 111.097px);fill: #FC6681;}#HyOex2WDFem{-webkit-transform:  translate(103.161px, 111.097px);transform:  translate(103.161px, 111.097px);fill: #FC6681;}#H1YgxnWPtlX{-webkit-transform:  translate(95.2258px, 111.097px);transform:  translate(95.2258px, 111.097px);fill: #FC6681;}#B19gxnWvFgQ{-webkit-transform:  translate(87.2903px, 111.097px);transform:  translate(87.2903px, 111.097px);fill: #FC6681;}#ryilg2bvKe7{-webkit-transform:  translate(79.3548px, 111.097px);transform:  translate(79.3548px, 111.097px);fill: #FC6681;}#Skhge2ZvKgm{-webkit-transform:  translate(71.4194px, 111.097px);transform:  translate(71.4194px, 111.097px);fill: #FC6681;}#Hy6lgnbwFgX{-webkit-transform:  translate(63.4839px, 111.097px);transform:  translate(63.4839px, 111.097px);fill: #FC6681;}#ByAlg3ZvFl7{-webkit-transform:  translate(55.5484px, 111.097px);transform:  translate(55.5484px, 111.097px);fill: #FC6681;}#rJk-lhbPFem{-webkit-transform:  translate(47.6129px, 111.097px);transform:  translate(47.6129px, 111.097px);fill: #FC6681;}#rye-gnbPtlQ{-webkit-transform:  translate(39.6774px, 111.097px);transform:  translate(39.6774px, 111.097px);fill: #FC6681;}#BkZZxhbPYl7{-webkit-transform:  translate(31.7419px, 111.097px);transform:  translate(31.7419px, 111.097px);fill: #FC6681;}#rkLgen-wYlm_r1gTWPYlX{-webkit-transform-origin:  50% 50%;transform-origin:  50% 50%;transform-box:  fill-box;-webkit-transform:  scale(1, 1);transform:  scale(1, 1);}#BkZZxhbPYl7_ByVXfvKxm{-webkit-transform-origin:  50% 50%;transform-origin:  50% 50%;transform-box:  fill-box;-webkit-transform:  translate(0px, 0px);transform:  translate(0px, 0px);-webkit-animation-name:  BkZZxhbPYl7_ByVXfvKxm_Animation;animation-name:  BkZZxhbPYl7_ByVXfvKxm_Animation;-webkit-animation-timing-function:  cubic-bezier(0.42, 0, 0.58, 1);animation-timing-function:  cubic-bezier(0.42, 0, 0.58, 1);}#rJk-lhbPFem_rJnrfwtlQ{-webkit-animation-name:  rJk-lhbPFem_rJnrfwtlQ_Animation;animation-name:  rJk-lhbPFem_rJnrfwtlQ_Animation;-webkit-transform-origin:  50% 50%;transform-origin:  50% 50%;transform-box:  fill-box;-webkit-transform:  translate(0px, 0px);transform:  translate(0px, 0px);-webkit-animation-timing-function:  cubic-bezier(0.42, 0, 0.58, 1);animation-timing-function:  cubic-bezier(0.42, 0, 0.58, 1);}#Hy6lgnbwFgX_HJnnfDtxQ{-webkit-animation-name:  Hy6lgnbwFgX_HJnnfDtxQ_Animation;animation-name:  Hy6lgnbwFgX_HJnnfDtxQ_Animation;-webkit-transform-origin:  50% 50%;transform-origin:  50% 50%;transform-box:  fill-box;-webkit-transform:  translate(0px, 0px);transform:  translate(0px, 0px);-webkit-animation-timing-function:  cubic-bezier(0.42, 0, 0.58, 1);animation-timing-function:  cubic-bezier(0.42, 0, 0.58, 1);}#ryilg2bvKe7_rJl1QPYe7{-webkit-animation-name:  ryilg2bvKe7_rJl1QPYe7_Animation;animation-name:  ryilg2bvKe7_rJl1QPYe7_Animation;-webkit-transform-origin:  50% 50%;transform-origin:  50% 50%;transform-box:  fill-box;-webkit-transform:  translate(0px, 0px);transform:  translate(0px, 0px);-webkit-animation-timing-function:  cubic-bezier(0.42, 0, 0.58, 1);animation-timing-function:  cubic-bezier(0.42, 0, 0.58, 1);}#H1YgxnWPtlX_Hy7e7wFlm{-webkit-animation-name:  H1YgxnWPtlX_Hy7e7wFlm_Animation;animation-name:  H1YgxnWPtlX_Hy7e7wFlm_Animation;-webkit-transform-origin:  50% 50%;transform-origin:  50% 50%;transform-box:  fill-box;-webkit-transform:  translate(0px, 0px);transform:  translate(0px, 0px);-webkit-animation-timing-function:  cubic-bezier(0.42, 0, 0.58, 1);animation-timing-function:  cubic-bezier(0.42, 0, 0.58, 1);}#SkwegnZwKl7_H1V-7DYlm{-webkit-animation-name:  SkwegnZwKl7_H1V-7DYlm_Animation;animation-name:  SkwegnZwKl7_H1V-7DYlm_Animation;-webkit-transform-origin:  50% 50%;transform-origin:  50% 50%;transform-box:  fill-box;-webkit-transform:  translate(0px, 0px);transform:  translate(0px, 0px);-webkit-animation-timing-function:  cubic-bezier(0.42, 0, 0.58, 1);animation-timing-function:  cubic-bezier(0.42, 0, 0.58, 1);}</style>
<path fill-rule="evenodd" clip-rule="evenodd" d="M29.5 0L0 4.5L1 24.5L28.5992 19.5992L29.5 20.5L51.1 29.3L53 35L66.0787 35.4024L70 37L71.8055 35.5786L85.5 36L95 24L92 23.9348V19.6808L93.5 18.5L92 18.3655V12L84 14.5L83.7499 17.6259L54.4871 15.0023L54.5 15L29.5 0Z" id="S14gl3-vYl7"/>
<path d="M5.95161 0C2.67029 0 0 2.67029 0 5.95161C0 9.23294 2.67029 11.9032 5.95161 11.9032C9.23294 11.9032 11.9032 9.23294 11.9032 5.95161C11.9032 2.67029 9.23294 0 5.95161 0ZM5.95161 7.93548C4.85652 7.93548 3.96774 7.04671 3.96774 5.95161C3.96774 4.85652 4.85652 3.96774 5.95161 3.96774C7.04671 3.96774 7.93548 4.85652 7.93548 5.95161C7.93548 7.04671 7.04671 7.93548 5.95161 7.93548Z" id="SkSgl2bDteQ"/>
<path d="M109.113 0H13.8871C6.23134 0 0 6.23134 0 13.8871C0 21.5429 6.23134 27.7742 13.8871 27.7742H23.8065V123H123V13.8871C123 6.23134 116.769 0 109.113 0ZM27.7742 56.4491C29.7819 54.8005 37.1004 49.5968 49.5968 49.5968C58.9329 49.5968 65.44 53.7788 72.33 58.2088C79.3985 62.7538 86.7071 67.4516 97.2097 67.4516C108.907 67.4516 115.475 64.1108 119.032 61.0814V74.9308C118.257 76.377 113.678 83.3226 97.2097 83.3226C87.8736 83.3226 81.3665 79.1406 74.4765 74.7106C67.408 70.1655 60.0994 65.4677 49.5968 65.4677C38.9156 65.4677 31.6685 68.882 27.7742 71.3916V56.4491ZM109.113 3.96774C114.582 3.96774 119.032 8.41756 119.032 13.8871V55.0921C118.257 56.5383 113.678 63.4839 97.2097 63.4839C87.8736 63.4839 81.3665 59.3019 74.4765 54.8719C67.408 50.3268 60.0994 45.629 49.5968 45.629C38.9156 45.629 31.6685 49.0433 27.7742 51.5529V13.8871C27.7742 10.0027 26.1673 6.49123 23.5862 3.96774H109.113ZM3.96774 13.8871C3.96774 8.41756 8.41756 3.96774 13.8871 3.96774C19.3566 3.96774 23.8065 8.41756 23.8065 13.8871C23.8065 19.3566 19.3566 23.8065 13.8871 23.8065C8.41756 23.8065 3.96774 19.3566 3.96774 13.8871ZM23.5862 23.8065C23.6596 23.733 23.733 23.6616 23.8065 23.5862V23.8065H23.5862ZM27.7742 119.032V76.2878C29.7819 74.6392 37.1004 69.4355 49.5968 69.4355C58.9329 69.4355 65.44 73.6175 72.33 78.0475C79.3985 82.5925 86.7071 87.2903 97.2097 87.2903C108.907 87.2903 115.475 83.9495 119.032 80.9201V119.032H27.7742Z" id="rkLgen-wYlm"/>
<g id="SkwegnZwKl7_H1V-7DYlm" data-animator-group="true" data-animator-type="0"><path d="M3.96774 0H0V3.96774H3.96774V0Z" id="SkwegnZwKl7"/></g>
<path d="M3.96774 0H0V3.96774H3.96774V0Z" id="HyOex2WDFem"/>
<g id="H1YgxnWPtlX_Hy7e7wFlm" data-animator-group="true" data-animator-type="0"><path d="M3.96774 0H0V3.96774H3.96774V0Z" id="H1YgxnWPtlX"/></g>
<path d="M3.96774 0H0V3.96774H3.96774V0Z" id="B19gxnWvFgQ"/>
<g id="ryilg2bvKe7_rJl1QPYe7" data-animator-group="true" data-animator-type="0"><path d="M3.96774 0H0V3.96774H3.96774V0Z" id="ryilg2bvKe7"/></g>
<path d="M3.96774 0H0V3.96774H3.96774V0Z" id="Skhge2ZvKgm"/>
<g id="Hy6lgnbwFgX_HJnnfDtxQ" data-animator-group="true" data-animator-type="0"><path d="M3.96774 0H0V3.96774H3.96774V0Z" id="Hy6lgnbwFgX"/></g>
<path d="M3.96774 0H0V3.96774H3.96774V0Z" id="ByAlg3ZvFl7"/>
<g id="rJk-lhbPFem_rJnrfwtlQ" data-animator-group="true" data-animator-type="0"><path d="M3.96774 0H0V3.96774H3.96774V0Z" id="rJk-lhbPFem"/></g>
<path d="M3.96774 0H0V3.96774H3.96774V0Z" id="rye-gnbPtlQ"/>
<g id="BkZZxhbPYl7_ByVXfvKxm" data-animator-group="true" data-animator-type="0"><path d="M3.96774 0H0V3.96774H3.96774V0Z" id="BkZZxhbPYl7"/></g>
<script>(function(){var a=document.querySelector('#BJ7xx2ZDKlm'),b=a.querySelectorAll('style'),c=function(d){b.forEach(function(f){var g=f.textContent;g&amp;&amp;(f.textContent=g.replace(/transform-box:[^;\r\n]*/gi,'transform-box: '+d))})};c('initial'),window.requestAnimationFrame(function(){return c('fill-box')})})();</script></svg>